<svg width="1833" height="1181" viewBox="0 0 1833 1181" fill="none" xmlns="http://www.w3.org/2000/svg">
<g filter="url(#filter0_d_1221_191)">
<path d="M108 923.002C108 923.002 138.788 923.618 158.5 923.002C367.015 916.492 481 853.999 604 825.5C940.188 747.605 1163 561 1343.5 350.5C1524 140 1687 141 1687 141" stroke="url(#paint0_linear_1221_191)" stroke-width="15" stroke-linecap="round"/>
</g>
<rect x="104.5" y="3.5" width="1725" height="1174" rx="96.5" stroke="#7A7A7A" stroke-width="7"/>
<path d="M240.8 116C239.533 113.667 237.7 111.9 235.3 110.7C232.967 109.433 230.2 108.8 227 108.8C221.467 108.8 217.033 110.633 213.7 114.3C210.367 117.9 208.7 122.733 208.7 128.8C208.7 135.267 210.433 140.333 213.9 144C217.433 147.6 222.267 149.4 228.4 149.4C232.6 149.4 236.133 148.333 239 146.2C241.933 144.067 244.067 141 245.4 137H223.7V124.4H260.9V140.3C259.633 144.567 257.467 148.533 254.4 152.2C251.4 155.867 247.567 158.833 242.9 161.1C238.233 163.367 232.967 164.5 227.1 164.5C220.167 164.5 213.967 163 208.5 160C203.1 156.933 198.867 152.7 195.8 147.3C192.8 141.9 191.3 135.733 191.3 128.8C191.3 121.867 192.8 115.7 195.8 110.3C198.867 104.833 203.1 100.6 208.5 97.6C213.9 94.5333 220.067 93 227 93C235.4 93 242.467 95.0333 248.2 99.1C254 103.167 257.833 108.8 259.7 116H240.8ZM287.472 117.5C289.472 114.433 291.972 112.033 294.972 110.3C297.972 108.5 301.305 107.6 304.972 107.6V125.7H300.272C296.005 125.7 292.805 126.633 290.672 128.5C288.539 130.3 287.472 133.5 287.472 138.1V164H270.372V108.2H287.472V117.5ZM338.545 164.8C333.079 164.8 328.145 163.633 323.745 161.3C319.412 158.967 315.979 155.633 313.445 151.3C310.979 146.967 309.745 141.9 309.745 136.1C309.745 130.367 311.012 125.333 313.545 121C316.079 116.6 319.545 113.233 323.945 110.9C328.345 108.567 333.279 107.4 338.745 107.4C344.212 107.4 349.145 108.567 353.545 110.9C357.945 113.233 361.412 116.6 363.945 121C366.479 125.333 367.745 130.367 367.745 136.1C367.745 141.833 366.445 146.9 363.845 151.3C361.312 155.633 357.812 158.967 353.345 161.3C348.945 163.633 344.012 164.8 338.545 164.8ZM338.545 150C341.812 150 344.579 148.8 346.845 146.4C349.179 144 350.345 140.567 350.345 136.1C350.345 131.633 349.212 128.2 346.945 125.8C344.745 123.4 342.012 122.2 338.745 122.2C335.412 122.2 332.645 123.4 330.445 125.8C328.245 128.133 327.145 131.567 327.145 136.1C327.145 140.567 328.212 144 330.345 146.4C332.545 148.8 335.279 150 338.545 150ZM456.917 108.2L441.817 164H422.917L414.117 127.8L405.017 164H386.217L371.017 108.2H388.117L396.017 148.1L405.417 108.2H423.517L433.017 147.9L440.817 108.2H456.917ZM494.538 149.5V164H485.838C479.638 164 474.805 162.5 471.338 159.5C467.872 156.433 466.138 151.467 466.138 144.6V122.4H459.338V108.2H466.138V94.6H483.238V108.2H494.438V122.4H483.238V144.8C483.238 146.467 483.638 147.667 484.438 148.4C485.238 149.133 486.572 149.5 488.438 149.5H494.538ZM538.363 107.6C544.763 107.6 549.897 109.733 553.763 114C557.63 118.2 559.563 124 559.563 131.4V164H542.563V133.7C542.563 129.967 541.597 127.067 539.663 125C537.73 122.933 535.13 121.9 531.863 121.9C528.597 121.9 525.997 122.933 524.063 125C522.13 127.067 521.163 129.967 521.163 133.7V164H504.063V90H521.163V115.7C522.897 113.233 525.263 111.267 528.263 109.8C531.263 108.333 534.63 107.6 538.363 107.6ZM628.438 164L613.838 137.5H609.738V164H592.638V93.8H621.338C626.871 93.8 631.571 94.7667 635.438 96.7C639.371 98.6333 642.304 101.3 644.238 104.7C646.171 108.033 647.138 111.767 647.138 115.9C647.138 120.567 645.804 124.733 643.138 128.4C640.538 132.067 636.671 134.667 631.538 136.2L647.738 164H628.438ZM609.738 125.4H620.338C623.471 125.4 625.804 124.633 627.338 123.1C628.938 121.567 629.738 119.4 629.738 116.6C629.738 113.933 628.938 111.833 627.338 110.3C625.804 108.767 623.471 108 620.338 108H609.738V125.4ZM654.472 136C654.472 130.267 655.539 125.233 657.672 120.9C659.872 116.567 662.839 113.233 666.572 110.9C670.305 108.567 674.472 107.4 679.072 107.4C683.005 107.4 686.439 108.2 689.372 109.8C692.372 111.4 694.672 113.5 696.272 116.1V108.2H713.372V164H696.272V156.1C694.605 158.7 692.272 160.8 689.272 162.4C686.339 164 682.905 164.8 678.972 164.8C674.439 164.8 670.305 163.633 666.572 161.3C662.839 158.9 659.872 155.533 657.672 151.2C655.539 146.8 654.472 141.733 654.472 136ZM696.272 136.1C696.272 131.833 695.072 128.467 692.672 126C690.339 123.533 687.472 122.3 684.072 122.3C680.672 122.3 677.772 123.533 675.372 126C673.039 128.4 671.872 131.733 671.872 136C671.872 140.267 673.039 143.667 675.372 146.2C677.772 148.667 680.672 149.9 684.072 149.9C687.472 149.9 690.339 148.667 692.672 146.2C695.072 143.733 696.272 140.367 696.272 136.1ZM756.843 149.5V164H748.143C741.943 164 737.11 162.5 733.643 159.5C730.176 156.433 728.443 151.467 728.443 144.6V122.4H721.643V108.2H728.443V94.6H745.543V108.2H756.743V122.4H745.543V144.8C745.543 146.467 745.943 147.667 746.743 148.4C747.543 149.133 748.876 149.5 750.743 149.5H756.843ZM818.968 135.2C818.968 136.8 818.868 138.467 818.668 140.2H779.968C780.235 143.667 781.335 146.333 783.268 148.2C785.268 150 787.701 150.9 790.568 150.9C794.835 150.9 797.801 149.1 799.468 145.5H817.668C816.735 149.167 815.035 152.467 812.568 155.4C810.168 158.333 807.135 160.633 803.468 162.3C799.801 163.967 795.701 164.8 791.168 164.8C785.701 164.8 780.835 163.633 776.568 161.3C772.301 158.967 768.968 155.633 766.568 151.3C764.168 146.967 762.968 141.9 762.968 136.1C762.968 130.3 764.135 125.233 766.468 120.9C768.868 116.567 772.201 113.233 776.468 110.9C780.735 108.567 785.635 107.4 791.168 107.4C796.568 107.4 801.368 108.533 805.568 110.8C809.768 113.067 813.035 116.3 815.368 120.5C817.768 124.7 818.968 129.6 818.968 135.2ZM801.468 130.7C801.468 127.767 800.468 125.433 798.468 123.7C796.468 121.967 793.968 121.1 790.968 121.1C788.101 121.1 785.668 121.933 783.668 123.6C781.735 125.267 780.535 127.633 780.068 130.7H801.468Z" fill="#848484"/>
<path d="M188 174H821.768V179H188V174Z" fill="#848484"/>
<path d="M204.375 1088.87C204.375 1080.27 206.025 1073.5 209.325 1068.55C212.675 1063.6 218.05 1061.12 225.45 1061.12C232.85 1061.12 238.2 1063.6 241.5 1068.55C244.85 1073.5 246.525 1080.27 246.525 1088.87C246.525 1097.57 244.85 1104.4 241.5 1109.35C238.2 1114.3 232.85 1116.77 225.45 1116.77C218.05 1116.77 212.675 1114.3 209.325 1109.35C206.025 1104.4 204.375 1097.57 204.375 1088.87ZM233.925 1088.87C233.925 1083.82 233.375 1079.95 232.275 1077.25C231.175 1074.5 228.9 1073.12 225.45 1073.12C222 1073.12 219.725 1074.5 218.625 1077.25C217.525 1079.95 216.975 1083.82 216.975 1088.87C216.975 1092.27 217.175 1095.1 217.575 1097.35C217.975 1099.55 218.775 1101.35 219.975 1102.75C221.225 1104.1 223.05 1104.77 225.45 1104.77C227.85 1104.77 229.65 1104.1 230.85 1102.75C232.1 1101.35 232.925 1099.55 233.325 1097.35C233.725 1095.1 233.925 1092.27 233.925 1088.87Z" fill="white"/>
<path d="M473.925 1073.42H450.525V1083.77C451.525 1082.67 452.925 1081.77 454.725 1081.07C456.525 1080.37 458.475 1080.02 460.575 1080.02C464.325 1080.02 467.425 1080.87 469.875 1082.57C472.375 1084.27 474.2 1086.47 475.35 1089.17C476.5 1091.87 477.075 1094.8 477.075 1097.95C477.075 1103.8 475.425 1108.45 472.125 1111.9C468.825 1115.3 464.175 1117 458.175 1117C454.175 1117 450.7 1116.32 447.75 1114.97C444.8 1113.57 442.525 1111.65 440.925 1109.2C439.325 1106.75 438.45 1103.92 438.3 1100.72H450.825C451.125 1102.27 451.85 1103.57 453 1104.62C454.15 1105.62 455.725 1106.12 457.725 1106.12C460.075 1106.12 461.825 1105.37 462.975 1103.87C464.125 1102.37 464.7 1100.37 464.7 1097.87C464.7 1095.42 464.1 1093.55 462.9 1092.25C461.7 1090.95 459.95 1090.3 457.65 1090.3C455.95 1090.3 454.55 1090.72 453.45 1091.57C452.35 1092.37 451.625 1093.45 451.275 1094.8H438.9V1062.17H473.925V1073.42ZM484.154 1088.87C484.154 1080.27 485.804 1073.5 489.104 1068.55C492.454 1063.6 497.829 1061.12 505.229 1061.12C512.629 1061.12 517.979 1063.6 521.279 1068.55C524.629 1073.5 526.304 1080.27 526.304 1088.87C526.304 1097.57 524.629 1104.4 521.279 1109.35C517.979 1114.3 512.629 1116.77 505.229 1116.77C497.829 1116.77 492.454 1114.3 489.104 1109.35C485.804 1104.4 484.154 1097.57 484.154 1088.87ZM513.704 1088.87C513.704 1083.82 513.154 1079.95 512.054 1077.25C510.954 1074.5 508.679 1073.12 505.229 1073.12C501.779 1073.12 499.504 1074.5 498.404 1077.25C497.304 1079.95 496.754 1083.82 496.754 1088.87C496.754 1092.27 496.954 1095.1 497.354 1097.35C497.754 1099.55 498.554 1101.35 499.754 1102.75C501.004 1104.1 502.829 1104.77 505.229 1104.77C507.629 1104.77 509.429 1104.1 510.629 1102.75C511.879 1101.35 512.704 1099.55 513.104 1097.35C513.504 1095.1 513.704 1092.27 513.704 1088.87ZM532.03 1076.05C532.03 1072 533.18 1068.87 535.48 1066.67C537.83 1064.47 540.855 1063.37 544.555 1063.37C548.255 1063.37 551.255 1064.47 553.555 1066.67C555.855 1068.87 557.005 1072 557.005 1076.05C557.005 1080.1 555.855 1083.22 553.555 1085.42C551.255 1087.62 548.255 1088.72 544.555 1088.72C540.855 1088.72 537.83 1087.62 535.48 1085.42C533.18 1083.22 532.03 1080.1 532.03 1076.05ZM582.955 1064.2L554.08 1117H541.705L570.58 1064.2H582.955ZM544.48 1070.87C542.08 1070.87 540.88 1072.6 540.88 1076.05C540.88 1079.45 542.08 1081.15 544.48 1081.15C545.63 1081.15 546.53 1080.72 547.18 1079.87C547.83 1079.02 548.155 1077.75 548.155 1076.05C548.155 1072.6 546.93 1070.87 544.48 1070.87ZM567.73 1105.15C567.73 1101.1 568.88 1097.97 571.18 1095.77C573.48 1093.57 576.48 1092.47 580.18 1092.47C583.88 1092.47 586.88 1093.57 589.18 1095.77C591.48 1097.97 592.63 1101.1 592.63 1105.15C592.63 1109.2 591.48 1112.32 589.18 1114.53C586.88 1116.73 583.88 1117.83 580.18 1117.83C576.48 1117.83 573.48 1116.73 571.18 1114.53C568.88 1112.32 567.73 1109.2 567.73 1105.15ZM580.105 1099.97C578.955 1099.97 578.055 1100.4 577.405 1101.25C576.805 1102.1 576.505 1103.4 576.505 1105.15C576.505 1108.55 577.705 1110.25 580.105 1110.25C581.255 1110.25 582.155 1109.82 582.805 1108.97C583.455 1108.12 583.78 1106.85 583.78 1105.15C583.78 1103.45 583.455 1102.17 582.805 1101.32C582.155 1100.42 581.255 1099.97 580.105 1099.97Z" fill="white"/>
<path d="M779.025 1074.17V1062.25H799.8V1117H786.45V1074.17H779.025ZM808.573 1088.87C808.573 1080.27 810.223 1073.5 813.523 1068.55C816.873 1063.6 822.248 1061.12 829.648 1061.12C837.048 1061.12 842.398 1063.6 845.698 1068.55C849.048 1073.5 850.723 1080.27 850.723 1088.87C850.723 1097.57 849.048 1104.4 845.698 1109.35C842.398 1114.3 837.048 1116.77 829.648 1116.77C822.248 1116.77 816.873 1114.3 813.523 1109.35C810.223 1104.4 808.573 1097.57 808.573 1088.87ZM838.123 1088.87C838.123 1083.82 837.573 1079.95 836.473 1077.25C835.373 1074.5 833.098 1073.12 829.648 1073.12C826.198 1073.12 823.923 1074.5 822.823 1077.25C821.723 1079.95 821.173 1083.82 821.173 1088.87C821.173 1092.27 821.373 1095.1 821.773 1097.35C822.173 1099.55 822.973 1101.35 824.173 1102.75C825.423 1104.1 827.248 1104.77 829.648 1104.77C832.048 1104.77 833.848 1104.1 835.048 1102.75C836.298 1101.35 837.123 1099.55 837.523 1097.35C837.923 1095.1 838.123 1092.27 838.123 1088.87ZM857.499 1088.87C857.499 1080.27 859.149 1073.5 862.449 1068.55C865.799 1063.6 871.174 1061.12 878.574 1061.12C885.974 1061.12 891.324 1063.6 894.624 1068.55C897.974 1073.5 899.649 1080.27 899.649 1088.87C899.649 1097.57 897.974 1104.4 894.624 1109.35C891.324 1114.3 885.974 1116.77 878.574 1116.77C871.174 1116.77 865.799 1114.3 862.449 1109.35C859.149 1104.4 857.499 1097.57 857.499 1088.87ZM887.049 1088.87C887.049 1083.82 886.499 1079.95 885.399 1077.25C884.299 1074.5 882.024 1073.12 878.574 1073.12C875.124 1073.12 872.849 1074.5 871.749 1077.25C870.649 1079.95 870.099 1083.82 870.099 1088.87C870.099 1092.27 870.299 1095.1 870.699 1097.35C871.099 1099.55 871.899 1101.35 873.099 1102.75C874.349 1104.1 876.174 1104.77 878.574 1104.77C880.974 1104.77 882.774 1104.1 883.974 1102.75C885.224 1101.35 886.049 1099.55 886.449 1097.35C886.849 1095.1 887.049 1092.27 887.049 1088.87ZM905.375 1076.05C905.375 1072 906.525 1068.87 908.825 1066.67C911.175 1064.47 914.2 1063.37 917.9 1063.37C921.6 1063.37 924.6 1064.47 926.9 1066.67C929.2 1068.87 930.35 1072 930.35 1076.05C930.35 1080.1 929.2 1083.22 926.9 1085.42C924.6 1087.62 921.6 1088.72 917.9 1088.72C914.2 1088.72 911.175 1087.62 908.825 1085.42C906.525 1083.22 905.375 1080.1 905.375 1076.05ZM956.3 1064.2L927.425 1117H915.05L943.925 1064.2H956.3ZM917.825 1070.87C915.425 1070.87 914.225 1072.6 914.225 1076.05C914.225 1079.45 915.425 1081.15 917.825 1081.15C918.975 1081.15 919.875 1080.72 920.525 1079.87C921.175 1079.02 921.5 1077.75 921.5 1076.05C921.5 1072.6 920.275 1070.87 917.825 1070.87ZM941.075 1105.15C941.075 1101.1 942.225 1097.97 944.525 1095.77C946.825 1093.57 949.825 1092.47 953.525 1092.47C957.225 1092.47 960.225 1093.57 962.525 1095.77C964.825 1097.97 965.975 1101.1 965.975 1105.15C965.975 1109.2 964.825 1112.32 962.525 1114.53C960.225 1116.73 957.225 1117.83 953.525 1117.83C949.825 1117.83 946.825 1116.73 944.525 1114.53C942.225 1112.32 941.075 1109.2 941.075 1105.15ZM953.45 1099.97C952.3 1099.97 951.4 1100.4 950.75 1101.25C950.15 1102.1 949.85 1103.4 949.85 1105.15C949.85 1108.55 951.05 1110.25 953.45 1110.25C954.6 1110.25 955.5 1109.82 956.15 1108.97C956.8 1108.12 957.125 1106.85 957.125 1105.15C957.125 1103.45 956.8 1102.17 956.15 1101.32C955.5 1100.42 954.6 1099.97 953.45 1099.97Z" fill="white"/>
<path d="M1153.03 1074.17V1062.25H1173.8V1117H1160.45V1074.17H1153.03ZM1221.12 1073.42H1197.72V1083.77C1198.72 1082.67 1200.12 1081.77 1201.92 1081.07C1203.72 1080.37 1205.67 1080.02 1207.77 1080.02C1211.52 1080.02 1214.62 1080.87 1217.07 1082.57C1219.57 1084.27 1221.4 1086.47 1222.55 1089.17C1223.7 1091.87 1224.27 1094.8 1224.27 1097.95C1224.27 1103.8 1222.62 1108.45 1219.32 1111.9C1216.02 1115.3 1211.37 1117 1205.37 1117C1201.37 1117 1197.9 1116.32 1194.95 1114.97C1192 1113.57 1189.72 1111.65 1188.12 1109.2C1186.52 1106.75 1185.65 1103.92 1185.5 1100.72H1198.02C1198.32 1102.27 1199.05 1103.57 1200.2 1104.62C1201.35 1105.62 1202.92 1106.12 1204.92 1106.12C1207.27 1106.12 1209.02 1105.37 1210.17 1103.87C1211.32 1102.37 1211.9 1100.37 1211.9 1097.87C1211.9 1095.42 1211.3 1093.55 1210.1 1092.25C1208.9 1090.95 1207.15 1090.3 1204.85 1090.3C1203.15 1090.3 1201.75 1090.72 1200.65 1091.57C1199.55 1092.37 1198.82 1093.45 1198.47 1094.8H1186.1V1062.17H1221.12V1073.42ZM1231.35 1088.87C1231.35 1080.27 1233 1073.5 1236.3 1068.55C1239.65 1063.6 1245.03 1061.12 1252.43 1061.12C1259.83 1061.12 1265.18 1063.6 1268.48 1068.55C1271.83 1073.5 1273.5 1080.27 1273.5 1088.87C1273.5 1097.57 1271.83 1104.4 1268.48 1109.35C1265.18 1114.3 1259.83 1116.77 1252.43 1116.77C1245.03 1116.77 1239.65 1114.3 1236.3 1109.35C1233 1104.4 1231.35 1097.57 1231.35 1088.87ZM1260.9 1088.87C1260.9 1083.82 1260.35 1079.95 1259.25 1077.25C1258.15 1074.5 1255.88 1073.12 1252.43 1073.12C1248.98 1073.12 1246.7 1074.5 1245.6 1077.25C1244.5 1079.95 1243.95 1083.82 1243.95 1088.87C1243.95 1092.27 1244.15 1095.1 1244.55 1097.35C1244.95 1099.55 1245.75 1101.35 1246.95 1102.75C1248.2 1104.1 1250.03 1104.77 1252.43 1104.77C1254.83 1104.77 1256.63 1104.1 1257.83 1102.75C1259.08 1101.35 1259.9 1099.55 1260.3 1097.35C1260.7 1095.1 1260.9 1092.27 1260.9 1088.87ZM1279.23 1076.05C1279.23 1072 1280.38 1068.87 1282.68 1066.67C1285.03 1064.47 1288.05 1063.37 1291.75 1063.37C1295.45 1063.37 1298.45 1064.47 1300.75 1066.67C1303.05 1068.87 1304.2 1072 1304.2 1076.05C1304.2 1080.1 1303.05 1083.22 1300.75 1085.42C1298.45 1087.62 1295.45 1088.72 1291.75 1088.72C1288.05 1088.72 1285.03 1087.62 1282.68 1085.42C1280.38 1083.22 1279.23 1080.1 1279.23 1076.05ZM1330.15 1064.2L1301.28 1117H1288.9L1317.78 1064.2H1330.15ZM1291.68 1070.87C1289.28 1070.87 1288.08 1072.6 1288.08 1076.05C1288.08 1079.45 1289.28 1081.15 1291.68 1081.15C1292.83 1081.15 1293.73 1080.72 1294.38 1079.87C1295.03 1079.02 1295.35 1077.75 1295.35 1076.05C1295.35 1072.6 1294.13 1070.87 1291.68 1070.87ZM1314.93 1105.15C1314.93 1101.1 1316.08 1097.97 1318.38 1095.77C1320.68 1093.57 1323.68 1092.47 1327.38 1092.47C1331.08 1092.47 1334.08 1093.57 1336.38 1095.77C1338.68 1097.97 1339.83 1101.1 1339.83 1105.15C1339.83 1109.2 1338.68 1112.32 1336.38 1114.53C1334.08 1116.73 1331.08 1117.83 1327.38 1117.83C1323.68 1117.83 1320.68 1116.73 1318.38 1114.53C1316.08 1112.32 1314.93 1109.2 1314.93 1105.15ZM1327.3 1099.97C1326.15 1099.97 1325.25 1100.4 1324.6 1101.25C1324 1102.1 1323.7 1103.4 1323.7 1105.15C1323.7 1108.55 1324.9 1110.25 1327.3 1110.25C1328.45 1110.25 1329.35 1109.82 1330 1108.97C1330.65 1108.12 1330.98 1106.85 1330.98 1105.15C1330.98 1103.45 1330.65 1102.17 1330 1101.32C1329.35 1100.42 1328.45 1099.97 1327.3 1099.97Z" fill="white"/>
<path d="M1527.93 1106.72C1529.63 1105.37 1530.4 1104.75 1530.25 1104.85C1535.15 1100.8 1539 1097.47 1541.8 1094.87C1544.65 1092.27 1547.05 1089.55 1549 1086.7C1550.95 1083.85 1551.93 1081.07 1551.93 1078.37C1551.93 1076.32 1551.45 1074.72 1550.5 1073.57C1549.55 1072.42 1548.13 1071.85 1546.23 1071.85C1544.33 1071.85 1542.83 1072.57 1541.73 1074.02C1540.68 1075.42 1540.15 1077.42 1540.15 1080.02H1527.78C1527.88 1075.77 1528.78 1072.22 1530.48 1069.37C1532.23 1066.52 1534.5 1064.42 1537.3 1063.07C1540.15 1061.72 1543.3 1061.05 1546.75 1061.05C1552.7 1061.05 1557.18 1062.57 1560.18 1065.62C1563.23 1068.67 1564.75 1072.65 1564.75 1077.55C1564.75 1082.9 1562.93 1087.87 1559.28 1092.47C1555.63 1097.02 1550.98 1101.47 1545.33 1105.82H1565.58V1116.25H1527.93V1106.72ZM1571.22 1088.87C1571.22 1080.27 1572.87 1073.5 1576.17 1068.55C1579.52 1063.6 1584.9 1061.12 1592.3 1061.12C1599.7 1061.12 1605.05 1063.6 1608.35 1068.55C1611.7 1073.5 1613.37 1080.27 1613.37 1088.87C1613.37 1097.57 1611.7 1104.4 1608.35 1109.35C1605.05 1114.3 1599.7 1116.77 1592.3 1116.77C1584.9 1116.77 1579.52 1114.3 1576.17 1109.35C1572.87 1104.4 1571.22 1097.57 1571.22 1088.87ZM1600.77 1088.87C1600.77 1083.82 1600.22 1079.95 1599.12 1077.25C1598.02 1074.5 1595.75 1073.12 1592.3 1073.12C1588.85 1073.12 1586.57 1074.5 1585.47 1077.25C1584.37 1079.95 1583.82 1083.82 1583.82 1088.87C1583.82 1092.27 1584.02 1095.1 1584.42 1097.35C1584.82 1099.55 1585.62 1101.35 1586.82 1102.75C1588.07 1104.1 1589.9 1104.77 1592.3 1104.77C1594.7 1104.77 1596.5 1104.1 1597.7 1102.75C1598.95 1101.35 1599.77 1099.55 1600.17 1097.35C1600.57 1095.1 1600.77 1092.27 1600.77 1088.87ZM1620.15 1088.87C1620.15 1080.27 1621.8 1073.5 1625.1 1068.55C1628.45 1063.6 1633.82 1061.12 1641.22 1061.12C1648.62 1061.12 1653.97 1063.6 1657.27 1068.55C1660.62 1073.5 1662.3 1080.27 1662.3 1088.87C1662.3 1097.57 1660.62 1104.4 1657.27 1109.35C1653.97 1114.3 1648.62 1116.77 1641.22 1116.77C1633.82 1116.77 1628.45 1114.3 1625.1 1109.35C1621.8 1104.4 1620.15 1097.57 1620.15 1088.87ZM1649.7 1088.87C1649.7 1083.82 1649.15 1079.95 1648.05 1077.25C1646.95 1074.5 1644.67 1073.12 1641.22 1073.12C1637.77 1073.12 1635.5 1074.5 1634.4 1077.25C1633.3 1079.95 1632.75 1083.82 1632.75 1088.87C1632.75 1092.27 1632.95 1095.1 1633.35 1097.35C1633.75 1099.55 1634.55 1101.35 1635.75 1102.75C1637 1104.1 1638.82 1104.77 1641.22 1104.77C1643.62 1104.77 1645.42 1104.1 1646.62 1102.75C1647.87 1101.35 1648.7 1099.55 1649.1 1097.35C1649.5 1095.1 1649.7 1092.27 1649.7 1088.87ZM1668.02 1076.05C1668.02 1072 1669.17 1068.87 1671.47 1066.67C1673.82 1064.47 1676.85 1063.37 1680.55 1063.37C1684.25 1063.37 1687.25 1064.47 1689.55 1066.67C1691.85 1068.87 1693 1072 1693 1076.05C1693 1080.1 1691.85 1083.22 1689.55 1085.42C1687.25 1087.62 1684.25 1088.72 1680.55 1088.72C1676.85 1088.72 1673.82 1087.62 1671.47 1085.42C1669.17 1083.22 1668.02 1080.1 1668.02 1076.05ZM1718.95 1064.2L1690.07 1117H1677.7L1706.57 1064.2H1718.95ZM1680.47 1070.87C1678.07 1070.87 1676.87 1072.6 1676.87 1076.05C1676.87 1079.45 1678.07 1081.15 1680.47 1081.15C1681.62 1081.15 1682.52 1080.72 1683.17 1079.87C1683.82 1079.02 1684.15 1077.75 1684.15 1076.05C1684.15 1072.6 1682.92 1070.87 1680.47 1070.87ZM1703.72 1105.15C1703.72 1101.1 1704.87 1097.97 1707.17 1095.77C1709.47 1093.57 1712.47 1092.47 1716.17 1092.47C1719.87 1092.47 1722.87 1093.57 1725.17 1095.77C1727.47 1097.97 1728.62 1101.1 1728.62 1105.15C1728.62 1109.2 1727.47 1112.32 1725.17 1114.53C1722.87 1116.73 1719.87 1117.83 1716.17 1117.83C1712.47 1117.83 1709.47 1116.73 1707.17 1114.53C1704.87 1112.32 1703.72 1109.2 1703.72 1105.15ZM1716.1 1099.97C1714.95 1099.97 1714.05 1100.4 1713.4 1101.25C1712.8 1102.1 1712.5 1103.4 1712.5 1105.15C1712.5 1108.55 1713.7 1110.25 1716.1 1110.25C1717.25 1110.25 1718.15 1109.82 1718.8 1108.97C1719.45 1108.12 1719.77 1106.85 1719.77 1105.15C1719.77 1103.45 1719.45 1102.17 1718.8 1101.32C1718.15 1100.42 1717.25 1099.97 1716.1 1099.97Z" fill="white"/>
<defs>
<filter id="filter0_d_1221_191" x="0.5" y="63.5" width="1794" height="997.275" filterUnits="userSpaceOnUse" color-interpolation-filters="sRGB">
<feFlood flood-opacity="0" result="BackgroundImageFix"/>
<feColorMatrix in="SourceAlpha" type="matrix" values="0 0 0 0 0 0 0 0 0 0 0 0 0 0 0 0 0 0 127 0" result="hardAlpha"/>
<feOffset dy="30"/>
<feGaussianBlur stdDeviation="50"/>
<feComposite in2="hardAlpha" operator="out"/>
<feColorMatrix type="matrix" values="0 0 0 0 0.502261 0 0 0 0 0.0169338 0 0 0 0 0.926923 0 0 0 1 0"/>
<feBlend mode="normal" in2="BackgroundImageFix" result="effect1_dropShadow_1221_191"/>
<feBlend mode="normal" in="SourceGraphic" in2="effect1_dropShadow_1221_191" result="shape"/>
</filter>
<linearGradient id="paint0_linear_1221_191" x1="250" y1="1246" x2="37.8742" y2="411.007" gradientUnits="userSpaceOnUse">
<stop offset="0.0673077" stop-color="#0D0C0A"/>
<stop offset="0.228365" stop-color="#801768"/>
<stop offset="0.389423" stop-color="#F323C5"/>
<stop offset="0.644231" stop-color="#1F68A3"/>
<stop offset="0.822115" stop-color="#801768"/>
<stop offset="1"/>
</linearGradient>
</defs>
</svg>
